<svg width="36" height="36" viewBox="0 0 36 36" fill="none" xmlns="http://www.w3.org/2000/svg">
<path d="M9 31.5C8.175 31.5 7.4685 31.206 6.8805 30.618C6.2925 30.03 5.999 29.324 6 28.5V15C6 14.525 6.1065 14.075 6.3195 13.65C6.5325 13.225 6.826 12.875 7.2 12.6L16.2 5.85C16.475 5.65 16.7625 5.5 17.0625 5.4C17.3625 5.3 17.675 5.25 18 5.25C18.325 5.25 18.6375 5.3 18.9375 5.4C19.2375 5.5 19.525 5.65 19.8 5.85L28.8 12.6C29.175 12.875 29.469 13.225 29.682 13.65C29.895 14.075 30.001 14.525 30 15V28.5C30 29.325 29.706 30.0315 29.118 30.6195C28.53 31.2075 27.824 31.501 27 31.5H21V21H15V31.5H9Z" fill="#333333"/>
</svg>
