<svg width="85" height="85" viewBox="0 0 85 85" fill="none" xmlns="http://www.w3.org/2000/svg">
<path d="M60.2083 56.6667L74.375 42.5M74.375 42.5L60.2083 28.3333M74.375 42.5H24.7917M46.0417 56.6667V60.2083C46.0417 63.0262 44.9223 65.7288 42.9297 67.7213C40.9371 69.7139 38.2346 70.8333 35.4167 70.8333H21.25C18.4321 70.8333 15.7296 69.7139 13.737 67.7213C11.7444 65.7288 10.625 63.0262 10.625 60.2083V24.7917C10.625 21.9737 11.7444 19.2712 13.737 17.2786C15.7296 15.2861 18.4321 14.1667 21.25 14.1667H35.4167C38.2346 14.1667 40.9371 15.2861 42.9297 17.2786C44.9223 19.2712 46.0417 21.9737 46.0417 24.7917V28.3333" stroke="black" stroke-width="7.08333" stroke-linecap="round" stroke-linejoin="round"/>
</svg>
