<svg width="36" height="36" viewBox="0 0 36 36" fill="none" xmlns="http://www.w3.org/2000/svg">
<path d="M4.5 4.5C4.10218 4.5 3.72064 4.65803 3.43934 4.93934C3.15804 5.22064 3 5.60217 3 6V14.25C3 16.785 4.545 18.945 6.75 19.83V29.25C6.75 29.8467 6.98705 30.419 7.40901 30.841C7.83097 31.2629 8.40326 31.5 9 31.5C9.59674 31.5 10.169 31.2629 10.591 30.841C11.0129 30.419 11.25 29.8467 11.25 29.25V19.83C13.455 18.945 15 16.785 15 14.25V6C15 5.60217 14.842 5.22064 14.5607 4.93934C14.2794 4.65803 13.8978 4.5 13.5 4.5C13.1022 4.5 12.7206 4.65803 12.4393 4.93934C12.158 5.22064 12 5.60217 12 6V12C12 12.1989 11.921 12.3897 11.7803 12.5303C11.6397 12.671 11.4489 12.75 11.25 12.75C11.0511 12.75 10.8603 12.671 10.7197 12.5303C10.579 12.3897 10.5 12.1989 10.5 12V6C10.5 5.60217 10.342 5.22064 10.0607 4.93934C9.77936 4.65803 9.39783 4.5 9 4.5C8.60218 4.5 8.22065 4.65803 7.93934 4.93934C7.65804 5.22064 7.5 5.60217 7.5 6V12C7.5 12.1989 7.42098 12.3897 7.28033 12.5303C7.13968 12.671 6.94891 12.75 6.75 12.75C6.55109 12.75 6.36032 12.671 6.21967 12.5303C6.07902 12.3897 6 12.1989 6 12V6C6 5.60217 5.84197 5.22064 5.56066 4.93934C5.27936 4.65803 4.89782 4.5 4.5 4.5ZM29.82 4.5C29.625 4.5 29.43 4.635 29.25 4.74L24 7.875V13.5H18V16.5H19.5L21 31.5H30L31.5 16.5H33V13.5H27V9.51L30.75 7.26C31.5 6.84 31.695 6 31.26 5.25C30.945 4.71 30.39 4.425 29.82 4.5Z" fill="#333333"/>
</svg>
